# xmcd
#
# Track frame offsets: 
#        150
#        26562
#        49757
#        70981
#        88553
#        109518
#        130042
#        147553
#        169593
#        199008
#        224899
#        249578
#
# Disc length: 3847 seconds
#
# Revision: 1
# Processed by: cddbd v1.5.2PL0 Copyright (c) Steve Scherf et al.
# Submitted via: ExactAudioCopyFreeDBPlugin 1.0
#
DISCID=b00f050c
DTITLE=Frist Circle - Boys' Night Out
DYEAR=1987
DGENRE=Soul
TTITLE0=Workin' Up A Sweat
TTITLE1=Miracle Worker
TTITLE2=In The Name Of Love
TTITLE3=Dream You Came Back
TTITLE4=Get Off It
TTITLE5=Can't Find A Love
TTITLE6=You're On My Mind
TTITLE7=Boys' Night Out
TTITLE8=Workin' Up A Sweat (Special Sweaty Mix)
TTITLE9=Miracle Worker (Remix)
TTITLE10=Can't Find A Love (Club Mix)
TTITLE11=Workin' Up A Sweat (Radical Rusty Mix)
EXTD=
EXTT0=
EXTT1=
EXTT2=
EXTT3=
EXTT4=
EXTT5=
EXTT6=
EXTT7=
EXTT8=
EXTT9=
EXTT10=
EXTT11=
PLAYORDER=
